# xmcd
#
# Track frame offsets: 
#        150
#        17165
#        30422
#        44978
#        61117
#        76611
#        89446
#        108564
#        128975
#        141331
#
# Disc length: 2104 seconds
#
# Revision: 0
# Processed by: cddbd v1.5.2PL0 Copyright (c) Steve Scherf et al.
# Submitted via: ExactAudioCopyFreeDBPlugin 1.0
#
DISCID=8308360a
DTITLE=Home Free - Full Of (Even More) Cheer
DYEAR=2016
DGENRE=A Cappella
TTITLE0=O Holy Night
TTITLE1=White Christmas
TTITLE2=Colder Weather
TTITLE3=I'll Be Home For Christmas
TTITLE4=Grandma Got Run Over By A Reindeer
TTITLE5=Angels We Have Heard On High
TTITLE6=How Great Thou Art
TTITLE7=Do You Hear What I Hear?
TTITLE8=Full Of Cheer
TTITLE9=Silent Night (feat. Taylor Davis)
EXTD=
EXTT0=
EXTT1=
EXTT2=
EXTT3=
EXTT4=
EXTT5=
EXTT6=
EXTT7=
EXTT8=
EXTT9=
PLAYORDER=
